<?xml version="1.0" encoding="UTF-8"?>
<svg xmlns="http://www.w3.org/2000/svg" xmlns:xlink="http://www.w3.org/1999/xlink" width="746" height="420" viewBox="0 0 746 420">
<defs>
<g>
<g id="glyph-0-0">
<path d="M 0.179688 -0.558594 C 0.226562 -0.433594 0.28125 -0.335938 0.34375 -0.261719 C 0.453125 -0.132812 0.589844 -0.0664062 0.753906 -0.0664062 C 0.84375 -0.0664062 0.921875 -0.09375 0.984375 -0.152344 C 1.050781 -0.207031 1.082031 -0.285156 1.082031 -0.386719 C 1.082031 -0.476562 1.050781 -0.554688 0.984375 -0.621094 C 0.941406 -0.664062 0.851562 -0.726562 0.714844 -0.8125 L 0.480469 -0.960938 C 0.40625 -1.003906 0.351562 -1.050781 0.308594 -1.097656 C 0.230469 -1.183594 0.191406 -1.28125 0.191406 -1.386719 C 0.191406 -1.527344 0.238281 -1.644531 0.328125 -1.738281 C 0.421875 -1.832031 0.546875 -1.875 0.699219 -1.875 C 0.761719 -1.875 0.839844 -1.859375 0.929688 -1.832031 C 1.019531 -1.800781 1.066406 -1.785156 1.082031 -1.785156 C 1.117188 -1.785156 1.140625 -1.792969 1.152344 -1.808594 C 1.164062 -1.824219 1.175781 -1.847656 1.183594 -1.875 L 1.238281 -1.875 L 1.300781 -1.285156 L 1.234375 -1.285156 C 1.1875 -1.464844 1.117188 -1.589844 1.015625 -1.660156 C 0.917969 -1.730469 0.816406 -1.765625 0.71875 -1.765625 C 0.644531 -1.765625 0.578125 -1.742188 0.519531 -1.695312 C 0.464844 -1.652344 0.4375 -1.589844 0.4375 -1.511719 C 0.4375 -1.441406 0.457031 -1.378906 0.5 -1.328125 C 0.542969 -1.277344 0.613281 -1.222656 0.703125 -1.167969 L 0.949219 -1.015625 C 1.101562 -0.921875 1.207031 -0.835938 1.269531 -0.757812 C 1.332031 -0.675781 1.363281 -0.582031 1.363281 -0.476562 C 1.363281 -0.328125 1.308594 -0.207031 1.199219 -0.109375 C 1.089844 -0.0117188 0.949219 0.0351562 0.777344 0.0351562 C 0.691406 0.0351562 0.601562 0.0195312 0.507812 -0.0117188 C 0.414062 -0.0429688 0.359375 -0.0625 0.347656 -0.0625 C 0.316406 -0.0625 0.292969 -0.0507812 0.28125 -0.03125 C 0.269531 -0.0117188 0.261719 0.0117188 0.257812 0.03125 L 0.199219 0.03125 L 0.117188 -0.558594 Z "/>
</g>
<g id="glyph-0-1">
<path d="M 0.0234375 -0.0390625 C 0.0976562 -0.046875 0.148438 -0.0664062 0.171875 -0.09375 C 0.195312 -0.121094 0.203125 -0.183594 0.203125 -0.28125 L 0.203125 -1.582031 C 0.203125 -1.632812 0.199219 -1.671875 0.183594 -1.695312 C 0.171875 -1.71875 0.140625 -1.730469 0.0898438 -1.730469 C 0.078125 -1.730469 0.0703125 -1.730469 0.0585938 -1.730469 C 0.0507812 -1.730469 0.0390625 -1.726562 0.0273438 -1.726562 L 0.0273438 -1.773438 C 0.0664062 -1.785156 0.117188 -1.800781 0.175781 -1.816406 C 0.234375 -1.832031 0.273438 -1.84375 0.296875 -1.851562 L 0.425781 -1.894531 L 0.429688 -1.882812 L 0.429688 -1.050781 C 0.488281 -1.117188 0.539062 -1.164062 0.582031 -1.195312 C 0.660156 -1.25 0.746094 -1.277344 0.839844 -1.277344 C 0.984375 -1.277344 1.085938 -1.214844 1.140625 -1.089844 C 1.167969 -1.027344 1.183594 -0.941406 1.183594 -0.835938 L 1.183594 -0.28125 C 1.183594 -0.1875 1.195312 -0.125 1.214844 -0.09375 C 1.238281 -0.0664062 1.285156 -0.046875 1.351562 -0.0390625 L 1.351562 0 L 0.765625 0 L 0.765625 -0.0390625 C 0.84375 -0.0507812 0.894531 -0.0664062 0.917969 -0.09375 C 0.941406 -0.121094 0.949219 -0.183594 0.949219 -0.28125 L 0.949219 -0.832031 C 0.949219 -0.917969 0.9375 -0.988281 0.90625 -1.042969 C 0.878906 -1.097656 0.820312 -1.125 0.742188 -1.125 C 0.671875 -1.125 0.601562 -1.101562 0.535156 -1.050781 C 0.46875 -1 0.4375 -0.964844 0.4375 -0.949219 L 0.4375 -0.28125 C 0.4375 -0.179688 0.449219 -0.117188 0.472656 -0.09375 C 0.496094 -0.0664062 0.546875 -0.046875 0.621094 -0.0390625 L 0.621094 0 L 0.0234375 0 Z "/>
</g>
<g id="glyph-0-2">
<path d="M 0.226562 -1.75 C 0.226562 -1.789062 0.242188 -1.824219 0.269531 -1.851562 C 0.296875 -1.878906 0.328125 -1.894531 0.367188 -1.894531 C 0.40625 -1.894531 0.441406 -1.878906 0.46875 -1.851562 C 0.496094 -1.824219 0.511719 -1.789062 0.511719 -1.75 C 0.511719 -1.710938 0.496094 -1.679688 0.46875 -1.652344 C 0.441406 -1.625 0.40625 -1.609375 0.367188 -1.609375 C 0.328125 -1.609375 0.296875 -1.625 0.269531 -1.652344 C 0.242188 -1.679688 0.226562 -1.710938 0.226562 -1.75 Z M 0.0546875 -0.0390625 C 0.152344 -0.046875 0.210938 -0.0625 0.238281 -0.0859375 C 0.261719 -0.109375 0.273438 -0.175781 0.273438 -0.28125 L 0.273438 -0.929688 C 0.273438 -0.988281 0.269531 -1.027344 0.261719 -1.050781 C 0.25 -1.089844 0.222656 -1.105469 0.175781 -1.105469 C 0.167969 -1.105469 0.15625 -1.105469 0.148438 -1.105469 C 0.140625 -1.101562 0.113281 -1.09375 0.0664062 -1.082031 L 0.0664062 -1.125 L 0.125 -1.144531 C 0.28125 -1.195312 0.394531 -1.234375 0.457031 -1.261719 C 0.480469 -1.269531 0.496094 -1.277344 0.503906 -1.277344 C 0.507812 -1.269531 0.507812 -1.261719 0.507812 -1.253906 L 0.507812 -0.28125 C 0.507812 -0.179688 0.519531 -0.113281 0.542969 -0.0898438 C 0.570312 -0.0625 0.625 -0.046875 0.714844 -0.0390625 L 0.714844 0 L 0.0546875 0 Z "/>
</g>
<g id="glyph-0-3">
<path d="M 0.445312 -0.25 C 0.46875 -0.1875 0.503906 -0.140625 0.546875 -0.113281 C 0.59375 -0.0820312 0.648438 -0.0664062 0.714844 -0.0664062 C 0.8125 -0.0664062 0.894531 -0.113281 0.964844 -0.210938 C 1.03125 -0.308594 1.066406 -0.445312 1.066406 -0.617188 C 1.066406 -0.785156 1.03125 -0.910156 0.960938 -0.992188 C 0.886719 -1.074219 0.804688 -1.113281 0.710938 -1.113281 C 0.644531 -1.113281 0.582031 -1.09375 0.527344 -1.054688 C 0.472656 -1.011719 0.445312 -0.972656 0.445312 -0.933594 Z M 0.0117188 0.558594 C 0.0976562 0.554688 0.152344 0.535156 0.175781 0.503906 C 0.199219 0.472656 0.207031 0.425781 0.207031 0.359375 L 0.207031 -0.941406 C 0.207031 -1.011719 0.199219 -1.054688 0.183594 -1.074219 C 0.167969 -1.09375 0.136719 -1.101562 0.0898438 -1.101562 C 0.078125 -1.101562 0.0703125 -1.101562 0.0625 -1.101562 C 0.0546875 -1.101562 0.0390625 -1.097656 0.0234375 -1.097656 L 0.0234375 -1.140625 L 0.152344 -1.183594 C 0.15625 -1.183594 0.25 -1.214844 0.425781 -1.277344 C 0.429688 -1.277344 0.433594 -1.273438 0.4375 -1.269531 C 0.4375 -1.265625 0.4375 -1.261719 0.4375 -1.253906 L 0.4375 -1.074219 C 0.5 -1.132812 0.550781 -1.175781 0.597656 -1.207031 C 0.679688 -1.257812 0.761719 -1.28125 0.847656 -1.28125 C 0.972656 -1.28125 1.078125 -1.226562 1.167969 -1.121094 C 1.257812 -1.015625 1.304688 -0.871094 1.304688 -0.6875 C 1.304688 -0.503906 1.25 -0.339844 1.140625 -0.195312 C 1.035156 -0.046875 0.898438 0.0273438 0.734375 0.0273438 C 0.683594 0.0273438 0.640625 0.0195312 0.601562 0.0078125 C 0.546875 -0.0117188 0.492188 -0.046875 0.445312 -0.0976562 L 0.445312 0.347656 C 0.445312 0.4375 0.457031 0.496094 0.488281 0.515625 C 0.519531 0.535156 0.582031 0.550781 0.683594 0.558594 L 0.683594 0.605469 L 0.0117188 0.605469 Z "/>
</g>
</g>
</defs>
<g fill="rgb(36.470588%, 67.843137%, 88.627451%)" fill-opacity="1">
<use xlink:href="#glyph-0-0" x="30" y="22.083008"/>
<use xlink:href="#glyph-0-1" x="32" y="22.083008"/>
<use xlink:href="#glyph-0-2" x="33" y="22.083008"/>
<use xlink:href="#glyph-0-3" x="34" y="22.083008"/>
</g>
</svg>
